<svg id="Layer_1" enable-background="new 0 0 512 512" height="512" viewBox="0 0 512 512" width="512" xmlns="http://www.w3.org/2000/svg"><g clip-rule="evenodd" fill-rule="evenodd"><path d="m436 0h-360c-5.523 0-10 4.477-10 10v492c0 5.523 4.477 10 10 10h360c5.523 0 10-4.477 10-10v-492c0-5.523-4.477-10-10-10zm-350 46.102 41.427 69.042c1.807 3.012 5.062 4.855 8.575 4.855h109.998v272.001h-109.998c-3.513 0-6.768 1.843-8.575 4.855l-41.427 69.043zm55.664 53.898-48.002-80h324.676l-48.002 80zm0 312h228.673l48.002 80h-324.677zm242.909-15.145c-1.807-3.012-5.062-4.855-8.575-4.855h-109.998v-272h109.998c3.513 0 6.768-1.843 8.575-4.855l41.427-69.043v419.796z"/><path d="m336 50h-62.697c-3.46-5.972-9.904-10-17.303-10s-13.843 4.028-17.302 10h-62.698c-5.523 0-10 4.477-10 10s4.477 10 10 10h62.698c3.46 5.972 9.904 10 17.302 10s13.843-4.028 17.302-10h62.698c5.523 0 10-4.477 10-10s-4.477-10-10-10z"/><path d="m375.998 341.999h-59.994c-5.523 0-10 4.477-10 10s4.477 10 10 10h59.994c5.523 0 10-4.477 10-10s-4.477-10-10-10z"/><path d="m375.998 301.998h-59.994c-5.523 0-10 4.477-10 10s4.477 10 10 10h59.994c5.523 0 10-4.477 10-10s-4.477-10-10-10z"/><path d="m316.004 281.996h59.994c5.523 0 10-4.477 10-10s-4.477-10-10-10h-59.994c-5.523 0-10 4.477-10 10s4.477 10 10 10z"/></g></svg>