<svg id="Layer_1" enable-background="new 0 0 512 512" height="512" viewBox="0 0 512 512" width="512" xmlns="http://www.w3.org/2000/svg"><g clip-rule="evenodd" fill-rule="evenodd"><path d="m482 106.003h-56v-70.003c0-5.523-4.478-10-10-10h-320c-5.523 0-10 4.477-10 10v70.003h-56c-16.542 0-30 13.458-30 30v200c0 16.542 13.458 30 30 30h56v109.997c0 5.523 4.477 10 10 10h320c5.522 0 10-4.477 10-10v-109.997h56c16.542 0 30-13.458 30-30v-200c0-16.543-13.458-30-30-30zm-376-60.003h300v60.003h-300zm340 260.001h-380v-10.001c0-5.514 4.486-10 10-10h360c5.515 0 10.001 4.486 10.001 10v10.001zm-360 40.002h-20v-20.001h20zm320 119.997h-300v-139.998h300zm20-139.999h20v20.001h-20zm66 10.002c0 5.514-4.486 10-10 10h-16v-50.003c0-16.542-13.458-30-30.001-30h-359.999c-16.542 0-30 13.458-30 30v50.002h-16c-5.514 0-10-4.486-10-10v-200c0-5.514 4.486-10 10-10h452c5.514 0 10 4.486 10 10z"/><ellipse cx="406" cy="215.999" rx="20" ry="20" transform="matrix(.995 -.099 .099 .995 -19.308 41.058)"/><ellipse cx="326.001" cy="215.999" rx="20" ry="20" transform="matrix(.383 -.924 .924 .383 1.688 434.524)"/><path d="m226 195.999h-120.001c-11 0-20 9-20 20s9 20 20 20h120.001c11 0 19.999-9 19.999-20s-9-20-19.999-20z"/><path d="m353.273 366.003h-194.546c-5.523 0-10 4.477-10 10s4.477 10 10 10h194.546c5.523 0 10-4.477 10-10s-4.478-10-10-10z"/><path d="m353.273 406.005h-97.273c-5.523 0-10 4.477-10 10s4.477 10 10 10h97.273c5.523 0 10-4.477 10-10s-4.478-10-10-10z"/></g></svg>