<svg id="Layer_1" enable-background="new 0 0 512.002 512.002" height="512" viewBox="0 0 512.002 512.002" width="512" xmlns="http://www.w3.org/2000/svg"><g><path d="m156 100h100c5.522 0 10-4.477 10-10s-4.478-10-10-10h-100c-5.522 0-10 4.477-10 10s4.478 10 10 10z"/><path d="m156 140h200c5.522 0 10-4.477 10-10s-4.478-10-10-10h-200c-5.522 0-10 4.477-10 10s4.478 10 10 10z"/><path d="m366 170c0-5.523-4.478-10-10-10h-200c-5.522 0-10 4.477-10 10s4.478 10 10 10h200c5.523 0 10-4.477 10-10z"/><path d="m436 240.008h-10v-230.008c0-5.523-4.478-10-10-10h-320c-5.522 0-10 4.477-10 10v190.007h-9.999c-16.542 0-30 13.458-30 30v251.995c0 16.542 13.458 30 30 30h359.999c16.542 0 30-13.458 30-30v-211.994c0-16.542-13.458-30-30-30zm-330-220.008h300v220.008h-199.998v-10.001c0-16.542-13.458-30-30-30h-70.002zm340 462.002c0 5.514-4.486 10-10 10h-359.999c-5.514 0-10-4.486-10-10v-251.995c0-5.514 4.486-10 10-10h100.001c5.514 0 10 4.486 10 10v20.001c0 5.523 4.478 10 10 10h239.998c5.514 0 10 4.486 10 10z"/><path d="m356 200.008h-100c-5.522 0-10 4.477-10 10s4.478 10 10 10h100c5.522 0 10-4.477 10-10s-4.477-10-10-10z"/><path d="m416 452h-60c-5.522 0-10 4.477-10 10s4.478 10 10 10h60c5.522 0 10-4.477 10-10s-4.477-10-10-10z"/><path d="m416 411.999h-60c-5.522 0-10 4.477-10 10s4.478 10 10 10h60c5.522 0 10-4.477 10-10s-4.477-10-10-10z"/><path d="m416 371.998h-60c-5.522 0-10 4.477-10 10s4.478 10 10 10h60c5.522 0 10-4.477 10-10s-4.477-10-10-10z"/></g></svg>