<svg id="Layer_1" enable-background="new 0 0 512 512" height="512" viewBox="0 0 512 512" width="512" xmlns="http://www.w3.org/2000/svg"><g><path d="m511.659 429.066-103.223-385.236c-.686-2.562-2.362-4.746-4.659-6.072-2.296-1.327-5.024-1.685-7.588-.999l-114.027 30.554v-.558c0-5.523-4.477-10-10-10h-262.162c-5.523 0-10 4.477-10 10v398.825c0 5.523 4.477 10 10 10h262.162c5.523 0 10-4.477 10-10v-309.279l83.564 311.868c.687 2.562 2.362 4.746 4.659 6.072 1.534.886 3.26 1.34 5 1.34.867 0 1.737-.113 2.588-.341l126.615-33.926c2.562-.687 4.746-2.362 6.072-4.659s1.686-5.027.999-7.589zm-249.497-133.491h-111.081v-218.82h111.081zm-131.081-218.82v218.82h-111.08-.001v-218.82zm-111.081 238.82h111.081v140.005h-111.081zm131.081 140.005v-140.005h111.081v140.005zm240.624-396.914 56.635 211.364-107.296 28.75-56.634-211.363zm-9.248 394.667-36.237-135.235 107.296-28.75 36.236 135.235z"/><ellipse cx="75.541" cy="141.757" rx="25" ry="25" transform="matrix(.707 -.707 .707 .707 -78.112 94.935)"/><path d="m50.001 355.577h51.078c5.523 0 10-4.477 10-10s-4.477-10-10-10h-51.078c-5.523 0-10 4.477-10 10s4.478 10 10 10z"/><path d="m101.08 375.578h-51.079c-5.523 0-10 4.477-10 10s4.477 10 10 10h51.078c5.523 0 10-4.477 10-10s-4.476-10-9.999-10z"/><path d="m101.08 415.579h-51.079c-5.523 0-10 4.477-10 10s4.477 10 10 10h51.078c5.523 0 10-4.477 10-10s-4.476-10-9.999-10z"/><ellipse cx="354.881" cy="135.828" rx="25" ry="25" transform="matrix(.359 -.933 .933 .359 100.715 418.298)"/><path d="m434.89 335.752c5.335-1.429 8.501-6.913 7.071-12.248-1.429-5.334-6.911-8.502-12.247-7.071l-49.338 13.22c-5.335 1.429-8.501 6.913-7.071 12.248 1.197 4.468 5.237 7.414 9.653 7.414.856 0 1.728-.111 2.594-.343z"/><path d="m445.244 374.39c5.334-1.429 8.5-6.913 7.071-12.248-1.43-5.334-6.913-8.502-12.248-7.071l-49.337 13.22c-5.334 1.429-8.5 6.913-7.071 12.248 1.197 4.468 5.237 7.414 9.653 7.414.856 0 1.728-.111 2.595-.343z"/><path d="m450.42 393.71-49.337 13.22c-5.334 1.429-8.5 6.913-7.071 12.248 1.197 4.468 5.237 7.414 9.653 7.414.856 0 1.728-.111 2.595-.343l49.337-13.22c5.334-1.429 8.5-6.913 7.071-12.248-1.429-5.334-6.912-8.502-12.248-7.071z"/><ellipse cx="206.621" cy="141.757" rx="25" ry="25" transform="matrix(.973 -.23 .23 .973 -27.042 51.264)"/><path d="m232.161 335.577h-51.078c-5.523 0-10 4.477-10 10s4.477 10 10 10h51.078c5.523 0 10-4.477 10-10s-4.477-10-10-10z"/><path d="m232.161 375.578h-51.078c-5.523 0-10 4.477-10 10s4.477 10 10 10h51.078c5.523 0 10-4.477 10-10s-4.477-10-10-10z"/><path d="m232.161 415.579h-51.078c-5.523 0-10 4.477-10 10s4.477 10 10 10h51.078c5.523 0 10-4.477 10-10s-4.477-10-10-10z"/></g></svg>