<svg id="Layer_1" enable-background="new 0 0 512.012 512.012" height="512" viewBox="0 0 512.012 512.012" width="512" xmlns="http://www.w3.org/2000/svg"><path clip-rule="evenodd" d="m503.24 33.522-24.75-24.75c-11.696-11.696-30.729-11.698-42.426 0l-14.141 14.142-1.768-1.768c-3.905-3.905-10.237-3.905-14.143 0l-35.356 35.357-14.143-14.143 10-10c3.905-3.905 3.905-10.237 0-14.143s-10.237-3.905-14.143 0l-141.421 141.422c-3.905 3.905-3.905 10.237 0 14.143 1.953 1.953 4.512 2.929 7.071 2.929s5.119-.976 7.071-2.929l117.279-117.278 14.143 14.143-312.663 312.662c-15.513 15.513-27.039 35.37-31.622 54.479-4.097 17.083-2.557 32.183 4.24 43.613l-13.539 13.54c-3.905 3.905-3.905 10.237 0 14.143 1.953 1.953 4.512 2.929 7.071 2.929s5.119-.976 7.071-2.929l13.476-13.476c7.241 4.442 15.785 6.701 25.295 6.7 7.774 0 16.192-1.502 25.053-4.534 20.39-6.974 38.065-19.87 47.808-29.612l362.16-362.161c3.905-3.905 3.905-10.237 0-14.143l-1.767-1.767 14.142-14.143c11.698-11.697 11.698-30.729.002-42.426zm-374.536 406.355c-7.078 7.076-27.66 2.95-43.588-12.98-21.211-21.21-16.221-40.348-12.98-43.588l298.519-298.52 56.568 56.569zm-91.924 35.356c-13.261-13.26-6.517-44.39 13.654-69.356 2.164 9.657 7.618 22.24 20.54 35.162 10.175 10.175 22.553 17.385 35.032 20.459-20.133 15.644-52.99 29.973-69.226 13.735zm404.586-348.018-56.568-56.568 28.285-28.286 56.568 56.568zm47.731-65.409-14.142 14.142-38.891-38.891 14.141-14.142c3.899-3.899 10.243-3.898 14.142 0l24.75 24.75c3.899 3.898 3.899 10.243 0 14.141z" fill-rule="evenodd"/></svg>