<svg id="Layer_1" enable-background="new 0 0 512.001 512.001" height="512" viewBox="0 0 512.001 512.001" width="512" xmlns="http://www.w3.org/2000/svg"><g><path d="m426.002 179.999h-30.001c-9.674 0-18.288 4.607-23.777 11.738l-16.273-162.733c-1.681-16.806-14.278-29.004-29.951-29.004h-139.999c-15.674 0-28.27 12.198-29.951 29.004l-16.274 162.732c-5.489-7.13-14.103-11.738-23.777-11.738h-30c-16.542 0-30 13.458-30 30s13.458 30 30 30h5v50.002c0 14.839 10.831 27.188 25.001 29.576v10.425c0 11.028 8.972 20 20 20h30.002v10c0 3.506.61 6.87 1.72 10h-31.722c-5.523 0-10 4.477-10 10s4.477 10 10 10h60.002 29.998v41.999h-69.999c-16.542 0-30 13.458-30 30v20 20c0 5.523 4.477 10 10 10s10-4.477 10-10v-10h100v10c0 5.523 4.477 10 10 10s10-4.477 10-10v-10h100v10c0 5.523 4.478 10 10 10s10-4.477 10-10v-20-20c0-16.542-13.458-30-30.001-30h-69.999v-41.999h29.999c16.542 0 30-13.458 30-30v-10h30.002c11.028 0 20-8.972 20-20v-10.425c14.17-2.388 25.001-14.737 25.001-29.576v-50.002h5c16.542 0 30-13.458 30-30-.001-16.541-13.459-29.999-30.001-29.999zm-270.051 50.997 20-200.001c.53-5.295 3.901-10.995 10.05-10.995h139.999c6.149 0 9.52 5.7 10.05 10.995l20.001 200.001c.24 2.403-.952 4.281-1.996 5.434-1.992 2.202-5.079 3.57-8.054 3.57h-180.001c-2.975 0-6.062-1.368-8.054-3.57-1.043-1.152-2.236-3.03-1.995-5.434zm90.049 49.006v-20.002h20.001v20.001h-20.001zm-170.001-70.003c0-5.514 4.486-10 10-10h30.001c5.514 0 10 4.486 10 10s-4.486 10-10 10h-30.001c-5.514 0-10-4.486-10-10zm41.901 89.505c-4-1.308-6.901-5.071-6.901-9.503v-50.002h5c7.648 0 14.633-2.881 19.937-7.609.18 6.368 2.662 12.468 7.181 17.461 5.752 6.356 14.306 10.149 22.883 10.149h60v20.001h-80c-12.849.001-23.835 8.124-28.1 19.503zm248.101 162.497v10h-220.001v-10c0-5.514 4.486-10 10-10h200c5.515 0 10.001 4.486 10.001 10zm-100-30h-20.001v-41.999h20.001zm59.999-71.999c0 5.514-4.486 10-10 10h-119.998c-5.514 0-10-4.486-10-10v-10h139.998zm50.001-30h-240.001v-20c0-5.514 4.486-10 10-10h220.001c5.514 0 10 4.486 10 10zm25.001-40.001c0 4.432-2.9 8.194-6.901 9.503-4.265-11.379-15.25-19.502-28.1-19.502h-80v-20.002h60c8.577 0 17.132-3.794 22.884-10.15 4.518-4.993 7-11.093 7.18-17.46 5.304 4.728 12.289 7.609 19.937 7.609h5.001v50.002zm25-70.002h-30.001c-5.514 0-9.999-4.486-9.999-10s4.485-10 9.999-10h30.001c5.514 0 10 4.486 10 10s-4.486 10-10 10z"/><path d="m226.001 76.201h60c5.522 0 10-4.477 10-10s-4.478-10-10-10h-60c-5.523 0-10 4.477-10 10s4.477 10 10 10z"/><path d="m226.001 116.203h60c5.522 0 10-4.477 10-10s-4.478-10-10-10h-60c-5.523 0-10 4.477-10 10s4.477 10 10 10z"/></g></svg>