<svg id="Layer_1" enable-background="new 0 0 512 512" height="512" viewBox="0 0 512 512" width="512" xmlns="http://www.w3.org/2000/svg"><g clip-rule="evenodd" fill-rule="evenodd"><path d="m502 106.002h-146.001v-50.002c0-16.542-13.458-30-30-30h-139.998c-16.542 0-30 13.458-30 30v50.002h-146.001c-5.522 0-10 4.477-10 10v140.002c0 14.449 6.167 27.479 16 36.615v163.381c0 16.542 13.458 30 30 30h420.001c16.542 0 29.999-13.458 29.999-30v-163.38c9.833-9.137 16-22.166 16-36.615v-140.003c0-5.523-4.478-10-10-10zm-10 150.002c0 16.542-13.458 30-30 30h-26.001v-160.001h56.001zm-156.001 30h-159.998v-160.002h159.998zm-239.998-160.002h60v190.004c0 16.542-13.458 30-30 30s-30-13.458-30-30zm199.998-20h-79.998v-20.002h79.998zm60 20h60v190.004c0 16.542-13.458 30-30 30s-30-13.458-30-30zm-169.998-80.002h139.998c5.514 0 10 4.486 10 10v50.002h-20v-30.002c0-5.523-4.478-10-10-10h-99.998c-5.522 0-10 4.477-10 10v30.002h-20v-50.002c0-5.514 4.486-10 10-10zm-166.001 80.002h56.001v160.001h-26.001c-16.542 0-30-13.458-30-30zm456 329.998c0 5.514-4.485 10-9.999 10h-420.001c-5.514 0-10-4.486-10-10v-152.005c4.446 1.299 9.14 2.009 14 2.009h26.001v10.002c0 27.57 22.43 50 50 50s50-22.43 50-50v-10.002h159.998v10.002c0 27.57 22.43 50 50 50s50-22.43 50-50v-10.002h26.001c4.86 0 9.554-.71 14-2.009z"/><path d="m126.001 326.005c5.522 0 10-4.477 10-10s-4.478-10-10-10h-.008c-5.522 0-9.996 4.477-9.996 10s4.482 10 10.004 10z"/><path d="m386.003 326.005c5.522 0 10-4.477 10-10s-4.478-10-10-10h-.008c-5.522 0-9.996 4.477-9.996 10s4.481 10 10.004 10z"/></g></svg>