<svg id="Layer_1" enable-background="new 0 0 512 512" height="512" viewBox="0 0 512 512" width="512" xmlns="http://www.w3.org/2000/svg"><g><path d="m482 26h-111.1c-19.297 0-32.437 7.191-41.351 22.633l-32.173 55.725-255.513-68.465c-5.337-1.431-10.819 1.736-12.248 7.071-1.43 5.334 1.736 10.817 7.071 12.247l189.555 50.791h-196.241c-16.542 0-30 13.458-30 30v319.998c0 16.541 13.458 29.999 30 29.999h40.002c5.523 0 10-4.478 10-10 0-5.514 4.486-10 10-10h331.996c5.514 0 10 4.486 10 10 0 5.522 4.478 10 10 10h40.002c16.542 0 30-13.458 30-29.999v-400.001c0-16.542-13.458-29.999-30-29.999zm10 259.993h-472v-119.99h472zm-472 20h472v60.003h-472zm10-179.991h272.201c3.572 0 6.874-1.906 8.66-5l36.009-62.369c5.316-9.209 11.829-12.633 24.03-12.633h111.1c5.514 0 10 4.485 10 9.999v90.004h-472v-10.001c0-5.513 4.486-10 10-10zm462 329.998c0 5.514-4.486 9.999-10 9.999h-31.716c-4.127-11.641-15.249-20-28.286-20h-331.996c-13.038 0-24.159 8.359-28.287 20h-31.715c-5.514 0-10-4.485-10-9.999v-70.004h472z"/><path d="m196 425.997h120c5.522 0 10-4.478 10-10s-4.478-10-10-10h-120c-5.523 0-10 4.478-10 10s4.478 10 10 10z"/><path d="m196 345.995h120c5.522 0 10-4.478 10-10s-4.478-10-10-10h-120c-5.523 0-10 4.478-10 10s4.478 10 10 10z"/><path d="m295.999 200.998h-79.999c-11.046 0-20 8.954-20 20v10c0 11.046 8.954 20 20 20h79.999c11.046 0 20-8.954 20-20v-10c0-11.045-8.954-20-20-20z"/><path d="m415.998 200.998h-39.997c-11.046 0-20 8.954-20 20v10c0 11.046 8.954 20 20 20h39.997c11.046 0 20-8.954 20-20v-10c0-11.045-8.955-20-20-20z"/><path d="m458.303 90.052c5.522 0 10-4.478 10-10s-4.478-10-10-10h-.007c-5.522 0-9.997 4.478-9.997 10s4.482 10 10.004 10z"/><path d="m418.302 90.052c5.522 0 10-4.478 10-10s-4.478-10-10-10h-.008c-5.522 0-9.996 4.478-9.996 10s4.482 10 10.004 10z"/><path d="m378.3 90.052c5.522 0 10-4.478 10-10s-4.478-10-10-10h-.007c-5.522 0-9.997 4.478-9.997 10s4.482 10 10.004 10z"/></g></svg>