<svg id="Layer_1" enable-background="new 0 0 512 512" height="512" viewBox="0 0 512 512" width="512" xmlns="http://www.w3.org/2000/svg"><g><path d="m502 226h-236v-20h90.001c16.542 0 30-13.458 30-30v-120c0-16.542-13.458-29.999-30-29.999h-200.002c-16.542 0-30 13.457-30 29.999v120c0 16.542 13.458 30 30 30h90.001v20h-236c-5.522 0-10 4.478-10 10v240c0 5.522 4.478 10 10 10h146c5.522 0 10-4.478 10-10v-189.999h180v189.999c0 5.522 4.478 10 10 10h146c5.522 0 10-4.478 10-10v-240c0-5.522-4.478-10-10-10zm-346.001-180h200.002c5.514 0 10 4.485 10 9.999v89.999h-220.001-.001v-89.998c0-5.514 4.486-10 10-10zm-10 130v-10.001h.001 220.001v10.001c0 5.514-4.486 10-10 10h-200.002c-5.514 0-10-4.487-10-10zm220.001 110.002h126v60.003h-125.999-.001zm-220 60.003h-125.999-.001v-60.003h.001 125.999zm0 119.995h-126v-99.994h.001 125.999zm10-199.999c-.007 0-.013.001-.019.001h-135.98-.001v-20.002h472v20.002h-135.981c-.006 0-.013-.001-.019-.001zm336 199.999h-126v-99.994h.001 125.999z"/><path d="m63 326.003h40c5.522 0 10-4.478 10-10s-4.478-10-10-10h-40c-5.522 0-10 4.478-10 10s4.478 10 10 10z"/><path d="m63 406.006h40c5.522 0 10-4.478 10-10s-4.478-10-10-10h-40c-5.522 0-10 4.478-10 10s4.478 10 10 10z"/><path d="m409 326.003h40c5.522 0 10-4.478 10-10s-4.478-10-10-10h-40c-5.522 0-10 4.478-10 10s4.478 10 10 10z"/><path d="m409 406.006h40c5.522 0 10-4.478 10-10s-4.478-10-10-10h-40c-5.522 0-10 4.478-10 10s4.478 10 10 10z"/></g></svg>