<svg id="Layer_1" enable-background="new 0 0 512 512" height="512" viewBox="0 0 512 512" width="512" xmlns="http://www.w3.org/2000/svg"><g clip-rule="evenodd" fill-rule="evenodd"><path d="m426 60h-12.793l-17.722-53.162c-1.361-4.084-5.182-6.838-9.486-6.838h-259.998c-4.304 0-8.125 2.754-9.487 6.838l-17.72 53.162h-12.794c-5.523 0-10 4.478-10 10v60c0 5.522 4.477 10 10 10h10.524l3.226 60.003h-3.75c-2.749 0-5.376 1.131-7.265 3.128-1.889 1.996-2.873 4.683-2.72 7.427l10 180c.294 5.299 4.677 9.445 9.985 9.445h4.502l5.513 102.534c.286 5.307 4.671 9.463 9.986 9.463h259.997c5.314 0 9.7-4.156 9.986-9.463l5.513-102.534h4.503c5.308 0 9.69-4.146 9.985-9.445l10-180c.152-2.744-.832-5.431-2.72-7.427-1.889-1.997-4.516-3.128-7.265-3.128h-3.749l3.226-60.003h10.523c5.523 0 10-4.478 10-10v-60c0-5.522-4.477-10-10-10zm-292.791-40h245.582l13.334 40h-272.249zm243.312 472h-241.042l-4.946-91.997h250.936zm20.019-111.997h-281.079l-8.89-160h298.857zm-4.319-180h-272.442l-3.226-60.003h278.894zm23.779-80.003h-320v-40h320z"/><path d="m256 360.003c33.084 0 60-26.916 60-60s-26.916-60-60-60-60 26.916-60 60 26.916 60 60 60zm0-100c22.056 0 40 17.944 40 40s-17.944 40-40 40-40-17.944-40-40 17.944-40 40-40z"/><path d="m256 320.002c11.016 0 20-8.984 20-20s-8.984-20-20-20c-11.015 0-20 8.984-20 20s8.985 20 20 20z"/></g></svg>