<svg id="Layer_1" enable-background="new 0 0 512.002 512.002" height="512" viewBox="0 0 512.002 512.002" width="512" xmlns="http://www.w3.org/2000/svg"><g><path d="m396.001 0h-280c-16.542 0-30 13.458-30 30v432c0 13.036 8.361 24.152 20 28.28v11.722c0 5.522 4.478 10 10 10s10-4.478 10-10v-10.002h260v10.002c0 5.522 4.478 10 10 10s10-4.478 10-10v-11.722c11.639-4.128 20-15.243 20-28.28v-432c0-16.542-13.458-30-30-30zm-290 180h300v100h-300zm300-20h-300v-99.999h300zm-300 140h300v100h-300zm10-280h280c5.514 0 10 4.486 10 10v10.001h-300v-10.001c0-5.514 4.486-10 10-10zm280 452h-280c-5.514 0-10-4.486-10-10v-42h300v42c0 5.514-4.486 10-10 10z"/><path d="m231.001 100.001h50c5.522 0 10-4.478 10-10s-4.478-10-10-10h-50c-5.522 0-10 4.478-10 10s4.478 10 10 10z"/><path d="m281.001 200h-50c-5.522 0-10 4.478-10 10s4.478 10 10 10h50c5.522 0 10-4.478 10-10s-4.478-10-10-10z"/><path d="m281.001 320h-50c-5.522 0-10 4.478-10 10s4.478 10 10 10h50c5.522 0 10-4.478 10-10s-4.478-10-10-10z"/></g></svg>