<svg id="Layer_1" enable-background="new 0 0 512 512" height="512" viewBox="0 0 512 512" width="512" xmlns="http://www.w3.org/2000/svg"><path clip-rule="evenodd" d="m507.27 424.486c2.836-1.765 4.731-4.901 4.731-8.488 0-4.667-3.202-8.576-7.526-9.679l-19.712-128.119c11.276-22.313 17.237-47.196 17.237-72.199 0-88.225-71.776-160-160-160-27.816 0-53.993 7.141-76.805 19.676-.212.1-.425.196-.632.312l-179.238 100.011h-15.323c-15.015 0-27.304 11.711-29.884 28.48l-32.592 211.84c-4.324 1.103-7.526 5.012-7.526 9.679 0 3.586 1.894 6.723 4.731 8.488l-4.615 29.993c-.444 2.884.394 5.817 2.294 8.032 1.9 2.213 4.672 3.488 7.59 3.488h492c2.918 0 5.69-1.274 7.59-3.488 1.9-2.215 2.738-5.148 2.294-8.032zm-25.27-218.485c0 10.497-1.212 20.967-3.548 31.18l-6.57-42.7c-2.434-15.819-13.509-27.132-27.361-28.364-16.361-42.192-56.766-70.116-102.521-70.116-60.654 0-110.001 49.346-110.001 110 0 30.686 12.456 59.271 34.507 80.004h-39.387c-16.439-23.531-25.119-51.087-25.119-80.004 0-77.196 62.804-140 140.001-140s139.999 62.803 139.999 140zm-160.001-40.001c-14.528 0-25.932 10.661-29.761 27.823l-16.346 73.274c-15.329-16.506-23.893-38.081-23.893-61.097 0-49.626 40.374-90 90.001-90 34.708 0 65.653 19.634 80.65 49.999h-100.651zm-118.599 120.005h-61.316l-2.083-90.234c-.286-12.373-7.601-22.752-18.059-27.3l84.29-47.032c-15.347 24.551-24.233 53.536-24.233 84.562 0 28.465 7.353 55.783 21.401 80.004zm-143.515-88.484c.818-5.314 3.958-11.521 10.117-11.521h40.001c5.477 0 9.871 4.494 10.003 10.231l2.308 100.004c.125 5.432 4.564 9.77 9.998 9.77h147.377c4.684 0 8.74-3.251 9.76-7.822l22.309-100.004c.817-3.662 3.45-12.179 10.24-12.179h20.002c0 19.477 15.79 35.267 35.267 35.267h9.464c19.477 0 35.267-15.79 35.267-35.267h20.001c6.159 0 9.299 6.207 10.117 11.521l32.075 208.478h-456.38zm-38.229 248.479 3.077-20.001h462.533l3.078 20.001z" fill-rule="evenodd"/></svg>